<svg xmlns="http://www.w3.org/2000/svg" viewBox="0 0 800 500" font-family="'Segoe UI',sans-serif">
  <rect width="800" height="500" fill="#f5f7fa"/>
  <rect width="800" height="56" fill="#1a237e"/>
  <text x="20" y="36" fill="white" font-size="18" font-weight="700">⚡ IntelliOps</text>
  <text x="24" y="90" font-size="14" fill="#7c4dff">← Back to Orders</text>
  <text x="24" y="116" font-size="22" fill="#1a1a2e" font-weight="700">ORD-20241225-ABC123</text>
  <rect x="240" y="106" rx="6" ry="6" width="80" height="22" fill="#fff3e0"/>
  <text x="280" y="121" font-size="11" fill="#f57c00" text-anchor="middle" font-weight="600">PENDING</text>
  <text x="680" y="116" font-size="12" fill="#666" text-anchor="end">Total:</text>
  <text x="680" y="136" font-size="24" fill="#1a237e" font-weight="700" text-anchor="end">₹2,499.99</text>
  <rect x="24" y="156" rx="8" ry="8" width="360" height="120" fill="white" filter="drop-shadow(0 1px 3px rgba(0,0,0,0.08))"/>
  <text x="40" y="182" font-size="14" fill="#1a1a2e" font-weight="600">Customer</text>
  <text x="40" y="206" font-size="14" fill="#333" font-weight="500">Acme Corp</text>
  <text x="40" y="226" font-size="12" fill="#666">📧 admin@acmecorp.com</text>
  <text x="40" y="246" font-size="12" fill="#666">📞 +1-555-0100</text>
  <rect x="400" y="156" rx="8" ry="8" width="370" height="120" fill="white" filter="drop-shadow(0 1px 3px rgba(0,0,0,0.08))"/>
  <text x="416" y="182" font-size="14" fill="#1a1a2e" font-weight="600">Timeline</text>
  <text x="416" y="206" font-size="12" fill="#333">Created: Dec 25, 2024, 10:30:00 AM</text>
  <text x="416" y="226" font-size="12" fill="#333">Updated: Dec 25, 2024, 10:30:00 AM</text>
  <text x="416" y="246" font-size="12" fill="#666">Source: GraphQL BFF (single query)</text>
  <rect x="24" y="290" rx="8" ry="8" width="746" height="180" fill="white" filter="drop-shadow(0 1px 3px rgba(0,0,0,0.08))"/>
  <text x="40" y="318" font-size="14" fill="#1a1a2e" font-weight="600">Line Items</text>
  <text x="40" y="342" font-size="11" fill="#666">Product</text>
  <text x="220" y="342" font-size="11" fill="#666">SKU</text>
  <text x="340" y="342" font-size="11" fill="#666">Qty</text>
  <text x="440" y="342" font-size="11" fill="#666">Unit Price</text>
  <text x="560" y="342" font-size="11" fill="#666">Subtotal</text>
  <line x1="40" y1="352" x2="750" y2="352" stroke="#f0f0f0" stroke-width="1"/>
  <text x="40" y="376" font-size="13" fill="#333">Enterprise Server Rack</text>
  <text x="220" y="376" font-size="13" fill="#666">SRV-RACK-42U</text>
  <text x="340" y="376" font-size="13" fill="#333">1</text>
  <text x="440" y="376" font-size="13" fill="#333">₹2,499.99</text>
  <text x="560" y="376" font-size="13" fill="#333" font-weight="600">₹2,499.99</text>
  <line x1="40" y1="400" x2="750" y2="400" stroke="#f0f0f0" stroke-width="1"/>
  <text x="40" y="424" font-size="12" fill="#999">Endpoints: REST /api/v1/orders/ORD-20241225-ABC123  |  GraphQL query order(orderNumber: \"ORD-20241225-ABC123\")</text>
</svg>