<svg xmlns="http://www.w3.org/2000/svg" viewBox="0 0 1280 720" font-family="'Segoe UI', -apple-system, sans-serif">
  <defs>
    <linearGradient id="nav" x1="0%" y1="0%" x2="100%" y2="100%">
      <stop offset="0%" style="stop-color:#1a237e"/><stop offset="100%" style="stop-color:#283593"/>
    </linearGradient>
    <linearGradient id="grad1" x1="0%" y1="0%" x2="100%" y2="100%">
      <stop offset="0%" style="stop-color:#667eea"/><stop offset="100%" style="stop-color:#764ba2"/>
    </linearGradient>
    <filter id="shadow"><feDropShadow dx="0" dy="2" stdDeviation="6" flood-opacity="0.08"/></filter>
  </defs>
  <rect width="1280" height="720" fill="#f5f7fa"/>
  <!-- Navbar -->
  <rect width="1280" height="56" fill="url(#nav)"/>
  <text x="24" y="36" font-size="20" font-weight="700" fill="white">⚡ IntelliOps</text>
  <text x="200" y="36" font-size="14" fill="white" font-weight="600">Orders</text>
  <text x="290" y="36" font-size="14" fill="rgba(255,255,255,0.8)">AI Co-Pilot</text>
  <circle cx="1180" cy="28" r="14" fill="rgba(255,255,255,0.2)"/>
  <text x="1180" y="33" text-anchor="middle" font-size="12" font-weight="600" fill="white">J</text>
  <text x="1090" y="33" font-size="13" fill="rgba(255,255,255,0.9)">John Doe</text>
  <!-- Header -->
  <text x="32" y="96" font-size="24" font-weight="700" fill="#1a1a2e">Orders</text>
  <rect x="1000" y="80" width="240" height="36" rx="8" fill="white" stroke="#e0e0e0" stroke-width="1"/>
  <text x="1016" y="104" font-size="13" fill="#999">🔍 Search orders...</text>
  <rect x="960" y="80" width="80" height="36" rx="8" fill="url(#grad1)"/>
  <text x="1000" y="104" text-anchor="middle" font-size="13" font-weight="600" fill="white">+ New</text>
  <!-- Stats -->
  <rect x="32" y="120" width="290" height="90" rx="10" fill="white" filter="url(#shadow)"/><text x="48" y="160" font-size="28" font-weight="700" fill="#1a237e">156</text><text x="48" y="182" font-size="12" fill="#666">Total Orders</text>
  <rect x="338" y="120" width="290" height="90" rx="10" fill="white" filter="url(#shadow)"/><text x="354" y="160" font-size="28" font-weight="700" fill="#f57c00">28</text><text x="354" y="182" font-size="12" fill="#666">Pending</text>
  <rect x="644" y="120" width="290" height="90" rx="10" fill="white" filter="url(#shadow)"/><text x="660" y="160" font-size="28" font-weight="700" fill="#d32f2f">8</text><text x="660" y="182" font-size="12" fill="#666">On Hold</text>
  <rect x="950" y="120" width="300" height="90" rx="10" fill="white" filter="url(#shadow)"/><text x="966" y="160" font-size="28" font-weight="700" fill="#2e7d32">81</text><text x="966" y="182" font-size="12" fill="#666">Delivered</text>
  <!-- Table -->
  <rect x="32" y="230" width="1218" height="470" rx="12" fill="white" filter="url(#shadow)"/>
  <rect x="52" y="252" width="4" height="20" rx="2" fill="#7c4dff"/>
  <text x="68" y="268" font-size="16" font-weight="600" fill="#333">Order List</text>
  <rect x="52" y="290" width="1178" height="34" rx="6" fill="#f8f9fc"/>
  <text x="68" y="313" font-size="11" font-weight="600" fill="#888">ORDER #</text><text x="260" y="313" font-size="11" font-weight="600" fill="#888">CUSTOMER</text>
  <text x="480" y="313" font-size="11" font-weight="600" fill="#888">STATUS</text><text x="640" y="313" font-size="11" font-weight="600" fill="#888">AMOUNT</text>
  <text x="800" y="313" font-size="11" font-weight="600" fill="#888">CREATED</text><text x="1020" y="313" font-size="11" font-weight="600" fill="#888">ACTION</text>
  <!-- Row 1 -->
  <line x1="52" y1="340" x2="1230" y2="340" stroke="#f0f0f0"/>
  <text x="68" y="362" font-size="13" font-weight="600" fill="#1a237e">ORD-20250101-A1B2</text><text x="260" y="362" font-size="13" fill="#333">Acme Corporation</text>
  <rect x="480" y="350" width="90" height="22" rx="10" fill="#e8f5e9"/>
  <text x="525" y="366" text-anchor="middle" font-size="11" font-weight="600" fill="#2e7d32">DELIVERED</text>
  <text x="640" y="362" font-size="13" font-weight="600" fill="#333">₹1,24,500</text><text x="800" y="362" font-size="12" fill="#888">Jan 15, 2025</text>
  <text x="1020" y="362" font-size="13" font-weight="600" fill="#7c4dff">View →</text>
  <!-- Row 2 -->
  <line x1="52" y1="380" x2="1230" y2="380" stroke="#f0f0f0"/>
  <text x="68" y="402" font-size="13" font-weight="600" fill="#1a237e">ORD-20250102-C3D4</text><text x="260" y="402" font-size="13" fill="#333">TechStart Inc</text>
  <rect x="480" y="390" width="90" height="22" rx="10" fill="#fff3e0"/>
  <text x="525" y="406" text-anchor="middle" font-size="11" font-weight="600" fill="#f57c00">PENDING</text>
  <text x="640" y="402" font-size="13" font-weight="600" fill="#333">₹67,800</text><text x="800" y="402" font-size="12" fill="#888">Jan 14, 2025</text>
  <text x="1020" y="402" font-size="13" font-weight="600" fill="#7c4dff">View →</text>
  <!-- Row 3 -->
  <line x1="52" y1="420" x2="1230" y2="420" stroke="#f0f0f0"/>
  <text x="68" y="442" font-size="13" font-weight="600" fill="#1a237e">ORD-20250103-E5F6</text><text x="260" y="442" font-size="13" fill="#333">GlobalRetail Co</text>
  <rect x="480" y="430" width="90" height="22" rx="10" fill="#fef2f2"/>
  <text x="525" y="446" text-anchor="middle" font-size="11" font-weight="600" fill="#d32f2f">ON HOLD</text>
  <text x="640" y="442" font-size="13" font-weight="600" fill="#333">₹2,50,000</text><text x="800" y="442" font-size="12" fill="#888">Jan 13, 2025</text>
  <text x="1020" y="442" font-size="13" font-weight="600" fill="#7c4dff">View →</text>
  <!-- Row 4 -->
  <line x1="52" y1="460" x2="1230" y2="460" stroke="#f0f0f0"/>
  <text x="68" y="482" font-size="13" font-weight="600" fill="#1a237e">ORD-20250104-G7H8</text><text x="260" y="482" font-size="13" fill="#333">DataFlow Ltd</text>
  <rect x="480" y="470" width="90" height="22" rx="10" fill="#e3f2fd"/>
  <text x="525" y="486" text-anchor="middle" font-size="11" font-weight="600" fill="#1976d2">CONFIRMED</text>
  <text x="640" y="482" font-size="13" font-weight="600" fill="#333">₹89,200</text><text x="800" y="482" font-size="12" fill="#888">Jan 12, 2025</text>
  <text x="1020" y="482" font-size="13" font-weight="600" fill="#7c4dff">View →</text>
  <!-- Row 5 -->
  <line x1="52" y1="500" x2="1230" y2="500" stroke="#f0f0f0"/>
  <text x="68" y="522" font-size="13" font-weight="600" fill="#1a237e">ORD-20250105-I9J0</text><text x="260" y="522" font-size="13" fill="#333">CloudBase Inc</text>
  <rect x="480" y="510" width="90" height="22" rx="10" fill="#e8f5e9"/>
  <text x="525" y="526" text-anchor="middle" font-size="11" font-weight="600" fill="#388e3c">SHIPPED</text>
  <text x="640" y="522" font-size="13" font-weight="600" fill="#333">₹1,75,000</text><text x="800" y="522" font-size="12" fill="#888">Jan 11, 2025</text>
  <text x="1020" y="522" font-size="13" font-weight="600" fill="#7c4dff">View →</text>
  <!-- Row 6 -->
  <line x1="52" y1="540" x2="1230" y2="540" stroke="#f0f0f0"/>
  <text x="68" y="562" font-size="13" font-weight="600" fill="#1a237e">ORD-20250106-K1L2</text><text x="260" y="562" font-size="13" fill="#333">NetSolutions AG</text>
  <rect x="480" y="550" width="90" height="22" rx="10" fill="#e8eaf6"/>
  <text x="525" y="566" text-anchor="middle" font-size="11" font-weight="600" fill="#3949ab">PROCESSING</text>
  <text x="640" y="562" font-size="13" font-weight="600" fill="#333">₹45,600</text><text x="800" y="562" font-size="12" fill="#888">Jan 10, 2025</text>
  <text x="1020" y="562" font-size="13" font-weight="600" fill="#7c4dff">View →</text>
</svg>
