<svg xmlns="http://www.w3.org/2000/svg" viewBox="0 0 1280 720" font-family="'Segoe UI', -apple-system, sans-serif">
  <defs>
    <linearGradient id="nav" x1="0%" y1="0%" x2="100%" y2="100%">
      <stop offset="0%" style="stop-color:#1a237e"/><stop offset="100%" style="stop-color:#283593"/>
    </linearGradient>
    <filter id="shadow"><feDropShadow dx="0" dy="2" stdDeviation="6" flood-opacity="0.08"/></filter>
  </defs>
  <rect width="1280" height="720" fill="#f5f7fa"/>
  <!-- Navbar -->
  <rect width="1280" height="56" fill="url(#nav)"/>
  <text x="24" y="36" font-size="20" font-weight="700" fill="white">⚡ IntelliOps</text>
  <text x="200" y="36" font-size="14" fill="rgba(255,255,255,0.8)">Dashboard</text>
  <text x="305" y="36" font-size="14" fill="rgba(255,255,255,0.8)">Orders</text>
  <text x="410" y="36" font-size="14" fill="rgba(255,255,255,0.8)">AI Co-Pilot</text>
  <text x="520" y="36" font-size="14" fill="white" font-weight="600">System</text>
  <circle cx="1180" cy="28" r="14" fill="rgba(255,255,255,0.2)"/>
  <text x="1180" y="33" text-anchor="middle" font-size="12" font-weight="600" fill="white">J</text>
  <!-- Header -->
  <text x="32" y="96" font-size="24" font-weight="700" fill="#1a1a2e">🔧 System Health</text>
  <text x="32" y="118" font-size="13" fill="#888">Monitor the status of all IntelliOps microservices</text>
  <rect x="1040" y="80" width="210" height="34" rx="18" fill="#e8f5e9"/>
  <circle cx="1060" cy="97" r="5" fill="#4caf50"/>
  <text x="1072" y="102" font-size="13" font-weight="600" fill="#2e7d32">All Systems Operational</text>
  <!-- Stats -->
  <rect x="32" y="140" width="290" height="80" rx="10" fill="white" filter="url(#shadow)"/>
  <text x="52" y="174" font-size="28" font-weight="700" fill="#4caf50">9</text><text x="52" y="196" font-size="12" fill="#888">Operational</text>
  <rect x="338" y="140" width="290" height="80" rx="10" fill="white" filter="url(#shadow)"/>
  <text x="358" y="174" font-size="28" font-weight="700" fill="#ff9800">0</text><text x="358" y="196" font-size="12" fill="#888">Degraded</text>
  <rect x="644" y="140" width="290" height="80" rx="10" fill="white" filter="url(#shadow)"/>
  <text x="664" y="174" font-size="28" font-weight="700" fill="#f44336">0</text><text x="664" y="196" font-size="12" fill="#888">Down</text>
  <rect x="950" y="140" width="300" height="80" rx="10" fill="white" filter="url(#shadow)"/>
  <text x="970" y="174" font-size="28" font-weight="700" fill="#1a237e">9</text><text x="970" y="196" font-size="12" fill="#888">Total Services</text>
  <!-- Services Grid -->
  <!-- Row 1 -->
  <rect x="32" y="240" width="380" height="130" rx="10" fill="white" filter="url(#shadow)"/>
  <text x="52" y="272" font-size="28">🌱</text>
  <text x="88" y="272" font-size="14" font-weight="600" fill="#333">Auth Service</text><text x="88" y="290" font-size="11" fill="#999">Spring Boot</text>
  <rect x="290" y="260" width="100" height="24" rx="12" fill="#e8f5e9"/>
  <circle cx="306" cy="272" r="4" fill="#4caf50"/>
  <text x="315" y="276" font-size="11" font-weight="600" fill="#2e7d32">operational</text>
  <text x="52" y="320" font-size="12" fill="#888">Version: 1.0.0</text><text x="180" y="320" font-size="12" fill="#888">Port: 8080</text>
  <text x="52" y="338" font-size="12" fill="#888">Uptime: 14d 6h</text>
  <rect x="52" y="348" width="340" height="3" rx="2" fill="#f0f0f0"/>
  <rect x="52" y="348" width="340" height="3" rx="2" fill="#4caf50"/>

  <rect x="432" y="240" width="380" height="130" rx="10" fill="white" filter="url(#shadow)"/>
  <text x="452" y="272" font-size="28">🌱</text>
  <text x="488" y="272" font-size="14" font-weight="600" fill="#333">Order Service</text><text x="488" y="290" font-size="11" fill="#999">Spring Boot</text>
  <rect x="690" y="260" width="100" height="24" rx="12" fill="#e8f5e9"/>
  <circle cx="706" cy="272" r="4" fill="#4caf50"/>
  <text x="715" y="276" font-size="11" font-weight="600" fill="#2e7d32">operational</text>
  <text x="452" y="320" font-size="12" fill="#888">Version: 1.0.0</text><text x="580" y="320" font-size="12" fill="#888">Port: 8081</text>
  <text x="452" y="338" font-size="12" fill="#888">Uptime: 14d 6h</text>
  <rect x="452" y="348" width="340" height="3" rx="2" fill="#f0f0f0"/>
  <rect x="452" y="348" width="340" height="3" rx="2" fill="#4caf50"/>

  <rect x="832" y="240" width="420" height="130" rx="10" fill="white" filter="url(#shadow)"/>
  <text x="852" y="272" font-size="28">🌱</text>
  <text x="888" y="272" font-size="14" font-weight="600" fill="#333">Inventory Service</text><text x="888" y="290" font-size="11" fill="#999">Spring Boot</text>
  <rect x="1130" y="260" width="100" height="24" rx="12" fill="#e8f5e9"/>
  <circle cx="1146" cy="272" r="4" fill="#4caf50"/>
  <text x="1155" y="276" font-size="11" font-weight="600" fill="#2e7d32">operational</text>
  <text x="852" y="320" font-size="12" fill="#888">Version: 1.0.0</text><text x="980" y="320" font-size="12" fill="#888">Port: 8082</text>
  <text x="852" y="338" font-size="12" fill="#888">Uptime: 14d 6h</text>
  <rect x="852" y="348" width="380" height="3" rx="2" fill="#f0f0f0"/>
  <rect x="852" y="348" width="380" height="3" rx="2" fill="#4caf50"/>

  <!-- Row 2 -->
  <rect x="32" y="385" width="380" height="130" rx="10" fill="white" filter="url(#shadow)"/>
  <text x="52" y="417" font-size="28">🌱</text>
  <text x="88" y="417" font-size="14" font-weight="600" fill="#333">AI Co-Pilot</text><text x="88" y="435" font-size="11" fill="#999">Spring Boot</text>
  <rect x="290" y="405" width="100" height="24" rx="12" fill="#e8f5e9"/>
  <circle cx="306" cy="417" r="4" fill="#4caf50"/>
  <text x="315" y="421" font-size="11" font-weight="600" fill="#2e7d32">operational</text>
  <text x="52" y="465" font-size="12" fill="#888">Version: 1.0.0</text><text x="180" y="465" font-size="12" fill="#888">Port: 8083</text>
  <text x="52" y="483" font-size="12" fill="#888">Uptime: 14d 6h</text>
  <rect x="52" y="493" width="340" height="3" rx="2" fill="#f0f0f0"/><rect x="52" y="493" width="340" height="3" rx="2" fill="#4caf50"/>

  <rect x="432" y="385" width="380" height="130" rx="10" fill="white" filter="url(#shadow)"/>
  <text x="452" y="417" font-size="28">🌱</text>
  <text x="488" y="417" font-size="14" font-weight="600" fill="#333">Billing Service</text><text x="488" y="435" font-size="11" fill="#999">Spring Boot</text>
  <rect x="690" y="405" width="100" height="24" rx="12" fill="#e8f5e9"/>
  <circle cx="706" cy="417" r="4" fill="#4caf50"/>
  <text x="715" y="421" font-size="11" font-weight="600" fill="#2e7d32">operational</text>
  <text x="452" y="465" font-size="12" fill="#888">Version: 1.0.0</text><text x="580" y="465" font-size="12" fill="#888">Port: 8084</text>
  <text x="452" y="483" font-size="12" fill="#888">Uptime: 14d 6h</text>
  <rect x="452" y="493" width="340" height="3" rx="2" fill="#f0f0f0"/><rect x="452" y="493" width="340" height="3" rx="2" fill="#4caf50"/>

  <rect x="832" y="385" width="420" height="130" rx="10" fill="white" filter="url(#shadow)"/>
  <text x="852" y="417" font-size="28">🗄️</text>
  <text x="888" y="417" font-size="14" font-weight="600" fill="#333">PostgreSQL</text><text x="888" y="435" font-size="11" fill="#999">Database</text>
  <rect x="1130" y="405" width="100" height="24" rx="12" fill="#e8f5e9"/>
  <circle cx="1146" cy="417" r="4" fill="#4caf50"/>
  <text x="1155" y="421" font-size="11" font-weight="600" fill="#2e7d32">operational</text>
  <text x="852" y="465" font-size="12" fill="#888">Version: 16</text><text x="980" y="465" font-size="12" fill="#888">Port: 5432</text>
  <text x="852" y="483" font-size="12" fill="#888">Uptime: 14d 6h</text>
  <rect x="852" y="493" width="380" height="3" rx="2" fill="#f0f0f0"/><rect x="852" y="493" width="380" height="3" rx="2" fill="#4caf50"/>

  <!-- Row 3 -->
  <rect x="32" y="530" width="380" height="120" rx="10" fill="white" filter="url(#shadow)"/>
  <text x="52" y="562" font-size="28">🗄️</text><text x="88" y="562" font-size="14" font-weight="600" fill="#333">MongoDB</text>
  <text x="88" y="580" font-size="11" fill="#999">Database</text>
  <rect x="290" y="550" width="100" height="24" rx="12" fill="#e8f5e9"/>
  <circle cx="306" cy="562" r="4" fill="#4caf50"/><text x="315" y="566" font-size="11" font-weight="600" fill="#2e7d32">operational</text>
  <text x="52" y="610" font-size="12" fill="#888">Version: 7.0</text><text x="180" y="610" font-size="12" fill="#888">Port: 27017</text>
  <text x="52" y="628" font-size="12" fill="#888">Uptime: 14d 6h</text>
  <rect x="52" y="638" width="340" height="3" rx="2" fill="#f0f0f0"/><rect x="52" y="638" width="340" height="3" rx="2" fill="#4caf50"/>

  <rect x="432" y="530" width="380" height="120" rx="10" fill="white" filter="url(#shadow)"/>
  <text x="452" y="562" font-size="28">📨</text><text x="488" y="562" font-size="14" font-weight="600" fill="#333">Apache Kafka</text>
  <text x="488" y="580" font-size="11" fill="#999">Message Queue</text>
  <rect x="690" y="550" width="100" height="24" rx="12" fill="#e8f5e9"/>
  <circle cx="706" cy="562" r="4" fill="#4caf50"/><text x="715" y="566" font-size="11" font-weight="600" fill="#2e7d32">operational</text>
  <text x="452" y="610" font-size="12" fill="#888">Version: 7.6.0</text><text x="580" y="610" font-size="12" fill="#888">Port: 9092</text>
  <text x="452" y="628" font-size="12" fill="#888">Uptime: 14d 6h</text>
  <rect x="452" y="638" width="340" height="3" rx="2" fill="#f0f0f0"/><rect x="452" y="638" width="340" height="3" rx="2" fill="#4caf50"/>

  <rect x="832" y="530" width="420" height="120" rx="10" fill="white" filter="url(#shadow)"/>
  <text x="852" y="562" font-size="28">🤖</text><text x="888" y="562" font-size="14" font-weight="600" fill="#333">Ollama (AI)</text>
  <text x="888" y="580" font-size="11" fill="#999">AI Model</text>
  <rect x="1130" y="550" width="100" height="24" rx="12" fill="#e8f5e9"/>
  <circle cx="1146" cy="562" r="4" fill="#4caf50"/><text x="1155" y="566" font-size="11" font-weight="600" fill="#2e7d32">operational</text>
  <text x="852" y="610" font-size="12" fill="#888">Model: llama3.1</text><text x="980" y="610" font-size="12" fill="#888">Port: 11434</text>
  <text x="852" y="628" font-size="12" fill="#888">Uptime: 14d 6h</text>
  <rect x="852" y="638" width="380" height="3" rx="2" fill="#f0f0f0"/><rect x="852" y="638" width="380" height="3" rx="2" fill="#4caf50"/>
</svg>
